# xmcd CD database file
#
# Track frame offsets:
#	150
#	28242
#	53628
#	81527
#	104361
#	126531
#	159774
#	173421
#	206594
#	236016
#	250651
#
# Disc length: 3657 seconds
#
# Revision: 0
# Processed by: cddbd v1.5.2PL0 Copyright (c) Steve Scherf et al.
# Submitted via: CDex 1.50
#
DISCID=8d0e470b
DTITLE=Wes Montgomery - Riverside profiles
DYEAR=2006
DGENRE=Jazz
TTITLE0=Four on six
TTITLE1=Twisted blues
TTITLE2=Delilah
TTITLE3=S.O.S
TTITLE4=Round midnight
TTITLE5=West coast blues
TTITLE6=Groove yard
TTITLE7=Body and soul
TTITLE8=Besame mucho
TTITLE9=Tune up
TTITLE10=Freddie freeloader
EXTD=YEAR: 2006
EXTT0=
EXTT1=
EXTT2=
EXTT3=
EXTT4=
EXTT5=
EXTT6=
EXTT7=
EXTT8=
EXTT9=
EXTT10=
PLAYORDER=
